<svg xmlns="http://www.w3.org/2000/svg" xmlns:xlink="http://www.w3.org/1999/xlink" enable-background="new 0 0 32 32" height="200" version="1.0" width="200" xml:space="preserve" style=""><rect id="backgroundrect" width="100%" height="100%" x="0" y="0" fill="none" stroke="none" class="" style=""/><g class="currentLayer" style=""><title>Layer 1</title><g id="svg_1" class=""><polygon fill="#1F62AE" points="182.50201845852916,180.97916659694965 101.58657763911833,200.4684600830078 20.671150386333466,180.97916659694965 2,0 201.17316884486263,0 " id="svg_2"/><polygon fill="#347DC6" points="101.57946872711182,12.529278755187988 101.57946872711182,186.37302148342133 167.24501802970644,169.19537667760778 184.71409752226646,12.529278755187988 " id="svg_3"/><polygon fill="#FFFFFF" points="161.06398183955298,37.587836265563965 41.88157632981097,37.587836265563965 44.67691516876221,62.64639377593994 101.57946872711182,62.64639377593994 46.45511996746063,81.37766408108382 49.07975334353023,106.4988694190979 126.48856729952877,106.4988694190979 124.0417584733168,131.55742692947388 101.57946872711182,137.75941847942977 79.25232970878642,131.45718801548264 76.91932452449555,119.02814817428589 50.38851218390528,119.02814817428589 53.6532935895234,150.2699016914412 101.57946872711182,162.81797598980575 149.43452082807016,150.2636404933328 156.48331911492733,81.37766408108382 101.76439540566298,81.37766408108382 158.48202228546143,62.64639377593994 " id="svg_4"/></g><g id="svg_5"/><g id="svg_6"/><g id="svg_7"/><g id="svg_8"/><g id="svg_9"/><g id="svg_10"/></g></svg>