<svg xmlns:dc="http://purl.org/dc/elements/1.1/" xmlns:cc="http://creativecommons.org/ns#" xmlns:rdf="http://www.w3.org/1999/02/22-rdf-syntax-ns#" xmlns:svg="http://www.w3.org/2000/svg" xmlns="http://www.w3.org/2000/svg" xmlns:sodipodi="http://sodipodi.sourceforge.net/DTD/sodipodi-0.dtd" xmlns:inkscape="http://www.inkscape.org/namespaces/inkscape" width="200" height="200" version="1.1" inkscape:version="0.48.3.1 r9886" sodipodi:docname="htmlcss.svg" style=""><rect id="backgroundrect" width="100%" height="100%" x="0" y="0" fill="none" stroke="none" class="" style=""/>
  <defs id="defs4"/>
  <sodipodi:namedview id="base" pagecolor="#ffffff" bordercolor="#666666" borderopacity="1.0" inkscape:pageopacity="0.0" inkscape:pageshadow="2" inkscape:zoom="0.35" inkscape:cx="-276.49014" inkscape:cy="244.10462" inkscape:document-units="px" inkscape:current-layer="layer1" showgrid="false" fit-margin-top="0" fit-margin-left="0" fit-margin-right="0" fit-margin-bottom="0" inkscape:window-width="1280" inkscape:window-height="938" inkscape:window-x="0" inkscape:window-y="31" inkscape:window-maximized="1"/>
  <metadata id="metadata7">
    <rdf:RDF>
      <cc:Work rdf:about="">
        <dc:format>image/svg+xml</dc:format>
        <dc:type rdf:resource="http://purl.org/dc/dcmitype/StillImage"/>
        <dc:title/>
      </cc:Work>
    </rdf:RDF>
  </metadata>
  
<g class="currentLayer" style=""><title>Layer 1</title>
    
    
  <g class=""><g id="g3013" class="">
      <polygon id="polygon2989" points="47.417760491371155,180.29273986816406 11.300592064857483,166.66078186035156 3.252041459083557,43.923770904541016 91.69174349308014,43.923770904541016 83.63464510440826,166.64158630371094 " style="fill:#264de4"/>
      <polygon id="polygon2991" points="76.73690187931061,158.8273162841797 83.6222015619278,53.95934295654297 47.47188341617584,53.95934295654297 47.47188341617584,169.85836791992188 " style="fill:#2965f1"/>
      <polygon id="polygon2993" points="21.703168511390686,99.48074340820312 22.695491433143616,114.53377532958984 47.47188341617584,114.53377532958984 47.47188341617584,99.48074340820312 " style="fill:#ebebeb"/>
      <polygon id="polygon2995" points="19.709249138832092,69.01269149780273 20.715720772743225,84.0660629272461 47.47188341617584,84.0660629272461 47.47188341617584,69.01269149780273 47.433602929115295,69.01269149780273 " style="fill:#ebebeb"/>
      <polygon id="polygon2997" points="47.47188341617584,138.5755157470703 47.42336428165436,138.5930633544922 35.09270250797272,134.06623077392578 34.30446016788483,122.06062316894531 28.312726616859436,122.06062316894531 23.19018518924713,122.06062316894531 24.741328835487366,145.69630432128906 47.42091906070709,154.25637817382812 47.47188341617584,154.23716735839844 " style="fill:#ebebeb"/>
      <path id="path2999" d="m24.065725355780152,10.569109490526092 h13.409778511328838 v7.624301791718517 h-7.80205295204587 v7.624301791718517 h7.80205295204587 v7.624301791718517 h-13.409778511328838 z" inkscape:connector-curvature="0"/>
      <path id="path3001" d="m40.15745956937475,10.569109490526092 h13.409778511328838 v6.6298276449726234 h-7.80205295204587 v1.3259655289945242 h7.80205295204587 V33.77350624793025 H40.15745956937475 V26.812187220709003 h7.80205295204587 v-1.3259655289945242 h-7.80205295204587 z" inkscape:connector-curvature="0"/>
      <path id="path3003" d="m56.24919378296936,10.569109490526092 h13.409778511328838 v6.6298276449726234 h-7.80205295204587 v1.3259655289945242 h7.80205295204587 V33.77350624793025 H56.24919378296936 V26.812187220709003 h7.80205295204587 v-1.3259655289945242 h-7.80205295204587 z" inkscape:connector-curvature="0"/>
      <polygon id="polygon3005" points="73.16964876651764,99.48074340820312 75.16843569278717,69.01269149780273 47.433602929115295,69.01269149780273 47.433602929115295,84.0660629272461 63.034787774086,84.0660629272461 62.0273414850235,99.48074340820312 47.433602929115295,99.48074340820312 47.433602929115295,114.53377532958984 61.06720507144928,114.53377532958984 59.782079339027405,134.05661010742188 47.433602929115295,138.58810424804688 47.433602929115295,154.2490997314453 70.13125765323639,145.69630432128906 70.29776155948639,143.15309143066406 72.89951479434967,103.52294921875 " style="fill:#ffffff"/>
    </g><g id="g3054" class="">
      <polygon id="polygon3028" points="196.18352663516998,43.923770904541016 188.1264282464981,166.64158630371094 151.9095550775528,180.29273986816406 115.7923675775528,166.66078186035156 107.74384462833405,43.923770904541016 " style="fill:#e44d26"/>
      <polygon id="polygon3030" points="151.96367800235748,169.85836791992188 181.2286468744278,158.8273162841797 188.1139770746231,53.95934295654297 151.96367800235748,53.95934295654297 " style="fill:#f16529"/>
      <polygon id="polygon3032" points="136.30104982852936,84.0660629272461 151.96367800235748,84.0660629272461 151.96367800235748,69.01269149780273 151.92539370059967,69.01269149780273 124.2010360956192,69.01269149780273 124.46606600284576,73.05125427246094 127.18728792667389,114.53377532958984 151.96367800235748,114.53377532958984 151.96367800235748,99.48074340820312 137.31289064884186,99.48074340820312 " style="fill:#ebebeb"/>
      <polygon id="polygon3034" points="138.79625856876373,122.06062316894531 132.8045288324356,122.06062316894531 127.68197023868561,122.06062316894531 129.2331405878067,145.69630432128906 151.9127289056778,154.25637817382812 151.96367800235748,154.23716735839844 151.96367800235748,138.5755157470703 151.9151703119278,138.5930633544922 139.58449709415436,134.06623077392578 " style="fill:#ebebeb"/>
      <path id="path3036" d="m115.97230639210515,10.569109490526092 h5.626499249198834 v7.5580035152687906 h5.14691680680276 V10.569109490526092 h5.62674306335358 V33.45660048650059 H126.7459662622615 v-7.6640807575883505 h-5.14691680680276 v7.6640807575883505 H115.97255020625988 V10.569109490526092 z" inkscape:connector-curvature="0"/>
      <path id="path3038" d="M139.7714936657021,18.158936178490748 H134.81816529777194 V10.569109490526092 h15.535837940761335 V18.158936178490748 H145.3984805432104 V33.45660048650059 H139.77173747985677 V18.158936178490748 z" inkscape:connector-curvature="0"/>
      <path id="path3040" d="m152.81969578553452,10.569109490526092 h5.866900005783743 L162.295532909949,18.611090423877855 L165.90081281625845,10.569109490526092 h5.869094333176507 V33.45660048650059 H166.16657024493747 V22.112302403187936 l-3.8710373349885083,8.137781942821643 h-0.09679421943631956 L158.32501939982194,22.112302403187936 v11.344298083312655 h-5.5053236142873665 V10.569109490526092 z" inkscape:connector-curvature="0"/>
      <path id="path3042" d="m174.57011271675518,10.569109490526092 h5.6282059482820905 v15.322194670296227 h7.912500764148268 V33.45660048650059 H174.57011271675518 V10.569109490526092 z" inkscape:connector-curvature="0"/>
      <polygon id="polygon3044" points="151.92539370059967,114.53377532958984 165.55899965763092,114.53377532958984 164.27385866641998,134.05661010742188 151.92539370059967,138.58810424804688 151.92539370059967,154.2490997314453 174.6230560541153,145.69630432128906 174.7895599603653,143.15309143066406 177.39130556583405,103.52294921875 177.66144716739655,99.48074340820312 174.6778656244278,99.48074340820312 151.92539370059967,99.48074340820312 " style="fill:#ffffff"/>
      <polygon id="polygon3046" points="151.92539370059967,84.02926635742188 151.92539370059967,84.0660629272461 178.6333099603653,84.0660629272461 178.6333099603653,84.0660629272461 178.66889345645905,84.0660629272461 178.8910003900528,80.6825180053711 179.3954712152481,73.05125427246094 179.66022646427155,69.01269149780273 151.92539370059967,69.01269149780273 151.92539370059967,78.36209106445312 " style="fill:#ffffff"/>
    </g></g></g></svg>