<svg xmlns="http://www.w3.org/2000/svg" xmlns:xlink="http://www.w3.org/1999/xlink" style="" version="1.1" xml:space="preserve" width="200" height="200"><rect id="backgroundrect" width="100%" height="100%" x="0" y="0" fill="none" stroke="none" class="" style=""/><g class="currentLayer" style=""><title>Layer 1</title><g id="svg_1" class=""><g id="svg_2"><g id="svg_3"><circle cx="98.68468434994257" cy="100.0360392407677" r="86.93693542480469" style="fill:#fbdc74;" id="svg_4"/></g></g><g id="Layer_1_1_"><g id="svg_5"><g id="svg_6"><path d="M68.9462514274409,62.66601326934624 h16.58489528370285 v47.19410496390857 c0,21.189189983795682 -10.103441954439669,28.701720978050517 -26.11644429732518,28.701720978050517 c-4.003250585721378,0 -8.959656072804988,-0.5778869995580646 -12.20038273743658,-1.733660998674193 l1.9063098027244654,-13.676658989540847 c2.2875717632693586,0.7705159994107518 5.337667447628505,1.348402998968817 8.578394112260096,1.348402998968817 c7.053346270080524,0 11.437858816346795,-3.2746929974956975 11.437858816346795,-14.639803988804287 L68.9462514274409,62.66601326934624 L68.9462514274409,62.66601326934624 z" style="fill:#323330;" id="svg_7"/><path d="M100.20973219212215,120.0694552254473 c4.3845125462662695,2.3115479982322564 11.437858816346795,4.6230959964645155 18.491205086427314,4.6230959964645155 c7.625239210897864,0 11.628489796619242,-3.2746929974956975 11.628489796619242,-8.283046993665586 c0,-4.6230959964645155 -3.4313576449040384,-7.3199019944021435 -12.391013717709027,-10.401965992045158 c-12.20038273743658,-4.430466996611824 -20.397514889151783,-11.365110991308596 -20.397514889151783,-22.34496398291181 C97.54089846830789,71.1416892628645 108.2162333635649,61.5102392702301 125.56365256835753,61.5102392702301 c8.38776313198765,0 14.487954500705941,1.733660998674193 18.87246704697221,3.8525799970537604 l-3.812619605448932,13.484029989688162 c-2.8594647040866987,-1.348402998968817 -8.197132151715202,-3.4673219973483844 -15.250478421795727,-3.4673219973483844 c-7.2439772503529705,0 -10.67533489525701,3.4673219973483844 -10.67533489525701,7.127272994549458 c0,4.815724996317201 4.003250585721378,6.934643994696769 13.725430579616154,10.594594991897841 c12.962906658526366,4.815724996317201 19.063098027244656,11.750368991013968 19.063098027244656,22.34496398291181 c0,12.52088499042472 -9.340918033349883,23.11547998232256 -29.738432922501666,23.11547998232256 c-8.38776313198765,0 -16.7755262639753,-2.3115479982322564 -20.969407829969125,-4.6230959964645155 L100.20973219212215,120.0694552254473 z" style="fill:#323330;" id="svg_8"/></g></g></g></g></g></svg>