<svg xmlns="http://www.w3.org/2000/svg" xmlns:xlink="http://www.w3.org/1999/xlink" height="200" style="" version="1.1" width="200" xml:space="preserve"><rect id="backgroundrect" width="100%" height="100%" x="0" y="0" fill="none" stroke="none"/><g class="currentLayer" style=""><title>Layer 1</title><g id="_x32_88-sass" class=""><g id="svg_1"><g id="svg_2"><path d="M166.26477708263175,112.57587724590972 c-6.395070997396243,0.03602765586006012 -11.933148447241313,2.005370365619117 -16.557814600924978,4.922595626738627 c-1.6845862965308203,-4.340063951705543 -3.4263849578494785,-8.131594157147353 -3.712049473699871,-10.975241811228715 c-0.3416849563718175,-3.3186037933069388 -0.713565327492772,-5.286931639520642 -0.3134760820667022,-9.2246021954934 c0.4000892454260702,-3.9386854195181136 2.197908347266154,-9.517390328327975 2.1696994729610393,-9.917753996970049 c-0.028208874305115192,-0.400871100414753 -0.39969193733726555,-2.4067488978065463 -4.082340612465607,-2.4432839854392836 c-3.6826486751283416,-0.03602765586006012 -6.851180683343739,0.9113474637277168 -7.22266374637589,2.1510032843773876 c-0.37188037112095496,1.2396558206496715 -1.0846510824361175,4.047783250643648 -1.512949202167302,6.964501079990479 c-0.6567502707937375,4.265978912894715 -7.366091966434292,19.507199637018143 -11.163165371138312,27.455610924229138 c-1.2558908687108306,-3.098378403965163 -2.311935768753028,-5.833943090466342 -2.5407852279043848,-8.021481462476467 c-0.34247957254942685,-3.3186037933069388 -0.713565327492772,-5.286931639520642 -0.3138733901555067,-9.2246021954934 c0.39969193733726555,-3.9386854195181136 2.197908347266154,-9.517390328327975 2.169302164872235,-9.917753996970049 c-0.02860618239391962,-0.400871100414753 -0.39969193733726555,-2.4067488978065463 -4.081943304376803,-2.4432839854392836 c-3.683045983217146,-0.03602765586006012 -6.851180683343739,0.9113474637277168 -7.223061054464693,2.151510716150064 c-0.37108575494334617,1.2391483888769954 -0.7707776922806114,4.156373649996505 -1.512949202167302,6.965008511763156 c-0.7417742017978879,2.806097702903268 -9.678027735187321,28.18326808624781 -12.018966994423073,34.78343315345627 c-1.1994731201006001,3.353616585621645 -2.226514529660074,6.0521387527174095 -2.969083347635569,7.875848543718196 c-0.11363011339806955,0.29126583751654195 -0.19944866057982846,0.47394127568022687 -0.2566610253676676,0.6200816262111749 c0.0854212390929544,-0.182168006391008 0.14303091196959808,-0.36535087632736984 0.14303091196959808,-0.29126583751654195 c-0.6281440883998176,1.5669493140262734 -0.9996271514319677,2.442269121893929 -0.9996271514319677,2.442269121893929 v0.03602765586006012 c-0.48551048451902423,1.1665856453841978 -1.027836025737083,2.2235660278701848 -1.28449705110475,2.2235660278701848 c-0.17163709436351765,0 -0.5423255412180588,-3.061843316332426 0.0858185471817588,-7.255259485734344 c1.341312107803785,-8.823731095078648 4.510241424107988,-22.532000433945154 4.481635241714066,-23.006956573170733 c-0.02860618239391962,-0.255238181656482 0.5991405979170936,-2.6249445600576133 -2.0842782338680856,-3.901642900112698 c-2.5976002846034194,-1.2031207330169342 -3.540015071247549,0.802757064374859 -3.768069914221296,0.802757064374859 s-0.39969193733726555,0.7296868891093856 -0.39969193733726555,0.7296868891093856 s2.8836621085426155,-15.459923818147171 -5.538474757933874,-15.459923818147171 c-5.252810242083482,0 -12.560895227552326,7.36587961217791 -16.157725355498908,14.038099991106492 c-2.255518020142799,1.5679641775716269 -7.137639815371741,4.958623282598687 -12.276025327879546,8.56798548164949 c-1.9698535042924068,1.3857961711806193 -3.996919373372653,2.807112566448622 -5.909560512877219,4.156881081769181 c-0.1426336038807934,-0.18318286993636176 -0.257058333456472,-0.36535087632736984 -0.39969193733726555,-0.5475188827183776 c-10.22035327640538,-13.927479864662928 -29.090898262260993,-23.7721636863675 -28.29111707949766,-42.47762112255614 c0.2852672077615868,-6.81836072945953 2.141093290567119,-24.72004623772796 36.284955826242964,-46.45131933438896 c27.977640997430957,-17.793095108915566 50.3591975640514,-12.907034569809678 54.213880641632066,-2.0419054532518546 c5.537680141756265,15.49645890577991 -11.962549245812841,44.33735856941699 -41.024444017591115,48.49322478764081 c-11.076949515867748,1.5679641775716269 -16.900294173474407,-3.9011354683400237 -18.356428318942672,-5.9425334898192 c-1.513346510256107,-2.1510032843773876 -1.7417986613186591,-2.261115979048275 -2.3127303849306373,-1.8597374468608456 c-0.9424147866441289,0.6561092820712354 -0.34247957254942685,2.552381816564817 0,3.682432374316277 c0.8565962394623694,2.880182741714096 4.424820185015033,7.98494637484373 10.506017792255772,10.537328191408548 c5.337834173087632,2.224073459642862 18.327822136548754,3.4642367120652096 34.02904049801136,-4.302514000527452 c17.6428629914499,-8.678098176320377 31.375022464797713,-32.852147826647986 27.349496909031142,-53.08751205745749 C119.30296098594712,12.818342760039526 92.6102143477097,6.0725447740728065 67.34499567254666,17.521220429209055 c-15.044865398757674,6.81836072945953 -31.31741279192107,17.538364359031764 -43.02250639618863,31.502379311327427 c-13.90300195153372,16.62701689530405 -16.129516481193797,31.10150821091268 -15.216502493121192,37.154661827175445 c3.254747863485961,21.47502005145917 26.435688304780935,35.47658495493292 35.714024102630994,45.83123770817779 c-0.45690430212510486,0.32830835692195576 -0.88520242185629,0.6200816262111749 -1.28449705110475,0.9118548955003937 c-4.653272336077585,2.9527454852068926 -22.324741509921406,14.766264584897849 -26.749959003025243,27.237415261978068 c-4.995354600538207,14.146690390459352 0.8275927489796455,24.28213261790779 4.653272336077585,25.668436220861096 c11.933148447241313,4.228936393489301 24.151961410333023,-3.391166536799736 30.71827219400398,-15.89783743796734 c6.565516167493349,-12.505656037622249 5.766529600907622,-28.840392231864396 2.7406311965730175,-36.27883458753511 c-0.029003490482724034,-0.10909783112553405 -0.0858185471817588,-0.18115314284565423 -0.11402742148687393,-0.2917732692892188 c1.1986785039229912,-0.9108400319550394 2.425963190239902,-1.8226949274554327 3.654042492734421,-2.7340423911831473 c2.3691481335408673,-1.7866672715953718 4.681878518471505,-3.4282090562051497 6.708547079462946,-4.849018019700475 c-1.142260755312761,3.9381779877454375 -1.9698535042924068,8.67606844922967 -2.3981516240235914,15.531979129867292 c-0.5137193588241394,8.020974030703789 2.0842782338680856,18.41266930335407 5.45305351884092,22.496480209857776 c1.4839457116845782,1.7866672715953718 3.282559429702272,1.8237097910007867 4.3962140026211145,1.8237097910007867 c3.9397070085848145,0 5.709317236119784,-4.157388513541858 7.679170740412189,-9.116011796140544 c2.426757806417511,-6.05366104803544 4.567851096984632,-13.090724871518717 4.567851096984632,-13.090724871518717 s-2.6834188317851786,19.034273224883272 4.653272336077585,19.034273224883272 c2.6834188317851786,0 5.367632279747966,-4.412119263425662 6.565913475582153,-6.672727810701261 v0.03602765586006012 c0,0 0.0576096728766437,-0.14512548698559413 0.20024327675743728,-0.43639132450213614 c0.2852672077615868,-0.5475188827183776 0.42790081164238075,-0.8758272396403335 0.42790081164238075,-0.8758272396403335 v-0.11011269467088776 c1.0846510824361175,-2.369706378401132 3.4545938321545937,-7.8027783684527225 7.022420469618453,-16.77163495051696 c4.625460769861275,-11.595323437439886 9.049883646787501,-26.07082961659387 9.049883646787501,-26.07082961659387 s0.39969193733726555,3.5378143191033598 1.7708021518013832,9.407785065429762 c0.7989865665857269,3.4637292802925335 2.4831755550277412,7.255766917507021 3.824884970920331,10.938706723595976 c-1.0842537743473128,1.8957651027209057 -1.7414013532298556,2.989788004612307 -1.7414013532298556,2.989788004612307 s0,0.03602765586006012 0.027811566216310743,0.07256274349279711 c-0.856198931373565,1.4593737782187703 -1.8264252842340047,3.027337955790397 -2.8256551275771673,4.558767045729287 c-3.654439800823226,5.541662389404444 -7.993838746745306,11.88658927495643 -8.564373162268478,13.709284202411858 c-0.6857537612764617,2.151510716150064 -0.5141166669129441,3.7544876860363976 0.7993838746745311,4.995158370231423 c0.9702263528604392,0.9483899831331309 2.6834188317851786,1.0935154701187235 4.481635241714066,0.9118548955003937 c3.2833540458798804,-0.2927881328345729 5.5956871227217135,-1.3127259959151454 6.7089443875517505,-1.97035757330441 c1.7696102275349694,-0.800727337284152 3.825679587097939,-2.077933109111914 5.766926908996428,-3.8640929489346085 c3.5686212536414676,-3.353616585621645 5.738718034691312,-8.16660694946206 5.53807744984507,-14.511026403241365 c-0.11402742148687393,-3.50026436792527 -0.9996271514319677,-7.001036167623218 -2.0842782338680856,-10.281582577979387 c0.3142706982443115,-0.5840539703511146 0.6571475788825422,-1.2046430283349654 0.9710209690380481,-1.8232023592281092 c5.653296795598356,-10.538850486726577 10.020904615825552,-22.095609109443018 10.020904615825552,-22.095609109443018 s0.39969193733726555,3.5357845920126527 1.7696102275349694,9.40626277011173 c0.6853564531876574,2.953760348752247 2.0270658690802463,6.198786535021035 3.2543505553971572,9.370235114251672 c-5.310022606871323,5.506142165317064 -8.592582036573594,11.887604138501782 -9.734842791886354,16.079498012585667 c-2.112884416262004,7.766750712592662 -0.45690430212510486,11.266000216972577 2.654812649391259,12.06977214489279 c1.3989217806804286,0.36433601278201583 3.397381467366755,-0.4749561392255808 4.882121795228942,-1.2772057718277625 c1.855428774716728,-0.8022496326021822 4.082340612465607,-2.0784405408845905 6.16622153824489,-4.04727581887097 c3.5686212536414676,-3.353616585621645 7.023215085796062,-8.058016550109203 6.795160242822314,-14.43846365974857 c-0.08621585527056325,-2.880690173486773 -0.7139626355815765,-5.760872915200867 -1.5419526926500264,-8.53195782578943 c4.481635241714066,-2.405734034261192 10.306569131675941,-3.7194748937216913 17.728681538631662,-2.6249445600576133 c15.901461638220047,2.369706378401132 19.0127812816476,15.058037854187068 18.41324337564171,20.344462061935033 c-0.5987432898282894,5.323974158926055 -3.938912392407205,8.241199420045564 -5.0525669653260445,9.116011796140544 c-1.1140518810076459,0.8753198078676561 -1.4561341454682675,1.2036281647896114 -1.369918290197705,1.8597374468608456 c0.1422362957919892,0.9478825513604535 0.6559556546161288,0.9118548955003937 1.597973133171452,0.6921369379312943 c1.3138978496762785,-0.29126583751654195 8.336318319294731,-4.302514000527452 8.649794401361433,-14.110662734599288 C192.1291363557119,126.10248601015789 182.79438280925163,112.46677941478417 166.26477708263175,112.57587724590972 L166.26477708263175,112.57587724590972 zM43.70675362103777,165.33508094644526 c-5.252412933994679,7.3288370927724955 -12.618107592340166,10.099922003361057 -15.786639600555562,7.7662432808199835 c-3.397381467366755,-2.5148318653867263 -2.0556720514741658,-13.307905670224432 4.424820185015033,-21.11119147044983 c3.9397070085848145,-4.739412756802264 9.021277464393583,-9.114489500822511 12.390052749366419,-11.8125042361456 c0.7707776922806114,-0.5830391068057607 1.8844322651994525,-1.4583589146734162 3.254747863485961,-2.5158467289320807 c0.2284521510625524,-0.18115314284565423 0.34247957254942685,-0.254730749883805 0.34247957254942685,-0.254730749883805 c0.2566610253676676,-0.21971795756909873 0.5423255412180588,-0.40137853218742997 0.827990057068451,-0.6205890579838518 C51.52895527341956,147.8708016262243 49.24522837897164,157.64190784089078 43.70675362103777,165.33508094644526 L43.70675362103777,165.33508094644526 zM82.07598768114882,132.00949927588968 c-1.8272199004116136,5.723830395795454 -5.681505669903473,20.308941837847648 -8.021650312961615,19.543227292878203 c-1.9984596866863267,-0.6566167138439111 -3.226538989180846,-11.77698401205822 -0.39969193733726555,-22.71467587210884 c1.427130654985544,-5.506142165317064 4.453029059320148,-12.068757281347438 6.252040085426646,-14.620631666139575 c2.882867492365007,-4.120853425909121 6.051796808669208,-5.433579421824267 6.794365626644704,-3.7925450689871654 C87.69988367817567,112.57587724590972 83.21745382028396,128.43667216447164 82.07598768114882,132.00949927588968 L82.07598768114882,132.00949927588968 zM113.76408891992443,151.33503833828954 c-0.7703803841918069,0.5099689315402871 -1.4843430197733831,0.8377698566895655 -1.8268225923228092,0.5825316750330842 c-0.2566610253676676,-0.182168006391008 0.3142706982443115,-0.8753198078676561 0.3142706982443115,-0.8753198078676561 s3.967518574801124,-5.432564558278912 5.53807744984507,-7.912891063123609 c0.9134112961614048,-1.4578514829007394 1.9694561962036026,-3.171956011003314 3.111716951516363,-5.067213681951544 c0,0.18115314284565423 0.027811566216310743,0.3648434445546931 0.027811566216310743,0.5825316750330842 C120.90172873529617,145.17227945912856 115.99139806576211,149.5849061543269 113.76408891992443,151.33503833828954 zM138.20211215419667,144.22439690776812 c-0.5709317236119785,-0.5104763633129635 -0.4859077926078286,-2.224073459642862 1.427130654985544,-7.548047618568917 c0.7425688179754969,-2.0784405408845905 2.455761296900235,-5.578197477037183 5.424050028358197,-8.932828926204182 c0.34287688063823096,1.3852887394079425 0.5423255412180588,2.6975073035504105 0.5423255412180588,3.937163124200083 C145.56661488827575,139.88484038783523 140.97095222507477,142.94769856771302 138.20211215419667,144.22439690776812 L138.20211215419667,144.22439690776812 z" style="fill:#CF649A;" id="svg_3"/></g></g></g><g id="Layer_1"/></g></svg>