<svg xmlns="http://www.w3.org/2000/svg" fill="none" height="200" width="200" style=""><rect id="backgroundrect" width="100%" height="100%" x="0" y="0" fill="none" stroke="none"/><g class="currentLayer" style=""><title>Layer 1</title><rect fill="#3178c6" height="179.47966838725097" rx="256" width="181.1056833329193" id="svg_1" class="" y="9.756098747253418" x="12.195121454565736" transform="translate(-4.065040588378906,-3.252032518386841) "/><path clip-rule="evenodd" d="m343.63823588974395,70.44351674710848 v14.448499272617507 c2.5367338941472055,1.204113760519371 5.536987486082185,2.1069104630372504 9.000760775804936,2.708967343296936 s7.114263660128002,0.9030853203895284 10.952094540533555,0.9030853203895284 c3.7402641921691235,0 7.293187874337942,-0.3310446987813325 10.659394475824262,-0.993422714215646 c3.3662066014863203,-0.6620893975626655 6.317832706632534,-1.7533535702673015 8.854566600779739,-3.2735039002422597 c2.5367338941472055,-1.5198617121033098 4.545111441454953,-3.5067071405346026 6.024820927264339,-5.959959049550577 s2.219720086043531,-5.4857598864313735 2.219720086043531,-9.097812550117837 c0,-2.6189185673424675 -0.42268507747156686,-4.9140078826948255 -1.2683669470736034,-6.8855565639287235 s-2.065109615227972,-3.7249022515011996 -3.6589066661956133,-5.260060710801904 c-1.5934853363087391,-1.5351584593007037 -3.5042961953800558,-2.912442942809438 -5.732120862555046,-4.131564832654554 s-4.740244817927815,-2.370418579852731 -7.5372604522584705,-3.4538900700228465 c-2.048900452965051,-0.7827316679119212 -3.886458367194318,-1.542662523963576 -5.512673742687801,-2.280081186026614 c-1.626215375493484,-0.737707279934687 -3.008358173066439,-1.4901340713234694 -4.146740107377768,-2.2575689920379967 c-1.138381934311329,-0.7677235385861766 -2.016482128439208,-1.580471465149587 -2.634300582383637,-2.4382437796902323 c-0.6178184539444288,-0.8580609324122942 -0.9270393955755457,-1.8286828347676742 -0.9270393955755457,-2.912442942809438 c0,-0.9931340963439976 0.27649090244637176,-1.8887153520706534 0.8294727073391146,-2.686455149308319 s1.333515310784191,-1.4823413887889483 2.3416005176743435,-2.054382010397144 c1.0083969215490556,-0.571752003736547 2.2440338294379125,-1.0159349082042635 3.7075341529843775,-1.3319714776598512 c1.4638120382053668,-0.316036569455588 3.089715699039949,-0.47391054524755766 4.878646126480453,-0.47391054524755766 c1.3007852715994461,0 2.67482348804094,0.09033739382611786 4.122114649324485,0.2707235636067044 c1.4472911612835435,0.18067478765223563 2.9026869036985476,0.45919103379346127 4.366498941903914,0.8352601205520278 c1.463500323546465,0.37635770463021584 2.886166026776724,0.8505568677494215 4.268620539008582,1.4223088714859689 c1.3821427975729552,0.5720406216081964 2.658614325778019,1.2341300191708606 3.8294145846151912,1.9868454284312924 v-13.500389564250748 c-2.3740188422001864,-0.8427641852149003 -4.96779651892652,-1.467333259463203 -7.781021315520097,-1.8737072227449088 s-6.041341804186163,-0.6095609449225585 -9.683727593459954,-0.6095609449225585 c-3.7078458676432797,0 -7.220246644154796,0.36885363996734377 -10.537514044193449,1.106272302030381 s-6.236163466000123,1.8887153520706534 -8.756999912543309,3.4538900700228465 c-2.5205247318842847,1.5654633358238423 -4.512381402270208,3.559524211046358 -5.975881725816673,5.982759861410845 c-1.463500323546465,2.4229470324928384 -2.1954063426491484,5.3200932281048825 -2.1954063426491484,8.691438586836131 c0,4.304446937772268 1.3416198919156523,7.976820736633362 4.0248596757469555,11.017121396583278 c2.6829280691724007,3.0400120420782684 6.756415231708121,5.613617603571852 12.22046148760716,7.720816684480753 c2.1464671412014824,0.8127479265634109 4.146740107377768,1.6101991059294276 6.000507183869957,2.3929307738413486 s3.4556687085912907,1.5954795944753317 4.805081466979501,2.4382437796902323 c1.3497244730471127,0.8427641852149003 2.4148534625163927,1.7608576349301737 3.195698683066743,2.7542803491458194 c0.7805335058914477,0.9931340963439976 1.170800258837172,2.1219185923629955 1.170800258837172,3.3863534880569945 c0,0.933101579041018 -0.244072577920529,1.798377958244536 -0.7319060191026835,2.5961177554822013 s-1.2278440414162992,1.4898454534518202 -2.219720086043531,2.076894204385761 s-2.2278246671749913,1.045951166855753 -3.7075341529843775,1.3769958656370853 c-1.4800212004682889,0.33133331665298155 -3.211596130670762,0.49671135710782327 -5.1956599345841274,0.49671135710782327 c-3.382415763749242,0 -6.732101488313738,-0.54923980974793 -10.049680603011298,-1.6480080471154386 c-3.3172674000386544,-1.09847961949586 -6.39077393681568,-2.7464876666112987 -9.22020789567218,-4.944024141346315 zm-26.233593978561654,-35.59870552492336 h20.018315394707983 v-11.856999403081689 h-55.796923943518046 v11.856999403081689 h19.92043699181265 v52.79340384628052 h15.858171556997414 z" fill="#fff" fill-rule="evenodd" id="svg_2" class="" transform="translate(-237.39837646484375,42.27642059326172) "/></g></svg>